<svg width="21" height="22" viewBox="0 0 21 22" fill="none" xmlns="http://www.w3.org/2000/svg">
<g clip-path="url(#clip0_204_354)">
<path fill-rule="evenodd" clip-rule="evenodd" d="M10.5 3.8147e-06C4.70085 3.8147e-06 0 4.9324 0 11.0187C0 15.8862 3.00825 20.0167 7.18095 21.4731C7.70595 21.5743 7.89705 21.2344 7.89705 20.9418C7.89705 20.6811 7.88865 19.987 7.8834 19.0685C4.9623 19.734 4.34595 17.5912 4.34595 17.5912C3.86925 16.3174 3.18045 15.9786 3.18045 15.9786C2.22705 15.2966 3.2529 15.3098 3.2529 15.3098C4.30605 15.3868 4.86045 16.445 4.86045 16.445C5.79705 18.128 7.3185 17.6418 7.91595 17.3602C8.01255 16.6485 8.28345 16.1634 8.58375 15.8884C6.25275 15.6101 3.801 14.6641 3.801 10.4423C3.801 9.24 4.2105 8.2555 4.88145 7.4855C4.7733 7.2072 4.41315 6.0863 4.98435 4.5705C4.98435 4.5705 5.86635 4.2735 7.87185 5.6991C8.72841 5.45437 9.61216 5.32972 10.5 5.3284C11.3925 5.3328 12.2902 5.4549 13.1292 5.6991C15.1336 4.2735 16.0135 4.5694 16.0135 4.5694C16.5868 6.0863 16.2256 7.2072 16.1185 7.4855C16.7905 8.2555 17.1979 9.24 17.1979 10.4423C17.1979 14.6751 14.742 15.6068 12.4036 15.8796C12.7806 16.2195 13.1155 16.8916 13.1155 17.9201C13.1155 19.3919 13.1029 20.581 13.1029 20.9418C13.1029 21.2366 13.2919 21.5798 13.8253 21.472C15.9162 20.7373 17.7338 19.3328 19.0213 17.4571C20.3087 15.5813 21.0009 13.3291 21 11.0187C21 4.9324 16.2981 3.8147e-06 10.5 3.8147e-06Z" fill="white"/>
</g>
<defs>
<clipPath id="clip0_204_354">
<rect width="21" height="22" fill="white"/>
</clipPath>
</defs>
</svg>
