<svg width="18" height="18" viewBox="0 0 18 18" fill="none" xmlns="http://www.w3.org/2000/svg">
<path d="M3.875 5.32031V18H0.488281V5.32031H3.875ZM0.277344 2.01562C0.277344 1.52344 0.449219 1.11719 0.792969 0.796875C1.13672 0.476563 1.59766 0.316406 2.17578 0.316406C2.74609 0.316406 3.20312 0.476563 3.54688 0.796875C3.89844 1.11719 4.07422 1.52344 4.07422 2.01562C4.07422 2.50781 3.89844 2.91406 3.54688 3.23438C3.20312 3.55469 2.74609 3.71484 2.17578 3.71484C1.59766 3.71484 1.13672 3.55469 0.792969 3.23438C0.449219 2.91406 0.277344 2.50781 0.277344 2.01562ZM9.96875 8.02734V18H6.59375V5.32031H9.75781L9.96875 8.02734ZM9.47656 11.2148H8.5625C8.5625 10.2773 8.68359 9.43359 8.92578 8.68359C9.16797 7.92578 9.50781 7.28125 9.94531 6.75C10.3828 6.21094 10.9023 5.80078 11.5039 5.51953C12.1133 5.23047 12.793 5.08594 13.543 5.08594C14.1367 5.08594 14.6797 5.17188 15.1719 5.34375C15.6641 5.51562 16.0859 5.78906 16.4375 6.16406C16.7969 6.53906 17.0703 7.03516 17.2578 7.65234C17.4531 8.26953 17.5508 9.02344 17.5508 9.91406V18H14.1523V9.90234C14.1523 9.33984 14.0742 8.90234 13.918 8.58984C13.7617 8.27734 13.5312 8.05859 13.2266 7.93359C12.9297 7.80078 12.5625 7.73438 12.125 7.73438C11.6719 7.73438 11.2773 7.82422 10.9414 8.00391C10.6133 8.18359 10.3398 8.43359 10.1211 8.75391C9.91016 9.06641 9.75 9.43359 9.64062 9.85547C9.53125 10.2773 9.47656 10.7305 9.47656 11.2148Z" fill="white"/>
</svg>
